<?xml version="1.0" standalone="no"?>
<!DOCTYPE svg PUBLIC "-//W3C//DTD SVG 20010904//EN"
 "http://www.w3.org/TR/2001/REC-SVG-20010904/DTD/svg10.dtd">
<svg version="1.0" xmlns="http://www.w3.org/2000/svg"
 width="1200.000000pt" height="1101.000000pt" viewBox="0 0 1200.000000 1101.000000"
 preserveAspectRatio="xMidYMid meet">

<g transform="translate(0.000000,1101.000000) scale(0.100000,-0.100000)"
fill="#000000" stroke="none">
<path d="M6408 10014 c-76 -41 -74 -159 2 -199 50 -26 97 -20 136 19 28 28 34
41 34 78 0 50 -18 82 -60 103 -36 19 -77 19 -112 -1z m86 -89 c3 -8 -2 -21
-10 -29 -20 -20 -44 -9 -44 20 0 19 5 24 24 24 13 0 26 -7 30 -15z"/>
<path d="M7484 9940 c-47 -19 -35 -80 15 -80 27 0 61 26 61 48 0 14 -29 42
-43 41 -7 0 -21 -4 -33 -9z"/>
<path d="M7630 9920 c-24 -45 43 -89 81 -54 24 21 24 36 1 57 -26 23 -69 22
-82 -3z"/>
<path d="M7336 9838 c-19 -27 -20 -50 -4 -66 27 -27 78 2 78 44 0 45 -49 59
-74 22z"/>
<path d="M7772 9828 c-18 -18 -14 -42 11 -66 30 -28 43 -28 63 3 15 23 15 27
0 50 -18 27 -54 33 -74 13z"/>
<path d="M7544 9740 c-36 -14 -64 -59 -64 -102 0 -88 112 -134 172 -70 36 37
43 71 24 116 -11 26 -26 41 -50 51 -40 17 -52 17 -82 5z m56 -94 c0 -20 -19
-31 -32 -18 -6 6 -7 15 -4 21 10 16 36 13 36 -3z"/>
<path d="M7277 9693 c-4 -3 -7 -23 -7 -44 0 -33 4 -40 25 -45 15 -4 32 -1 40
6 18 15 20 61 3 78 -13 13 -50 16 -61 5z"/>
<path d="M5220 9660 l-75 -28 -635 -16 c-349 -9 -655 -19 -679 -22 -33 -4 -54
-15 -78 -39 l-33 -33 0 -105 0 -104 -75 -6 c-42 -4 -89 -14 -105 -22 -47 -24
-54 -47 -46 -158 6 -99 6 -99 -23 -132 -57 -65 -58 -58 125 -556 91 -249 173
-463 181 -475 18 -28 72 -54 111 -54 31 0 1808 649 1847 674 27 18 55 74 55
111 0 25 -304 865 -335 925 -22 42 -71 70 -120 69 -22 0 -74 -13 -115 -29z
m153 -82 c8 -13 85 -216 172 -452 127 -347 155 -432 147 -450 -7 -17 -92 -52
-417 -171 -225 -83 -413 -152 -419 -154 -6 -2 16 14 49 36 190 126 276 343
220 558 -46 177 -201 320 -383 355 -58 12 -173 9 -232 -4 -40 -10 -15 0 405
155 220 81 410 148 422 148 13 1 29 -9 36 -21z m-513 -49 c-87 -35 -1030 -379
-1039 -379 -7 0 -11 38 -11 113 0 61 -3 135 -6 162 -10 89 -42 83 481 98 595
18 607 18 575 6z m-390 -249 c-8 -5 -19 -10 -25 -10 -5 0 -3 5 5 10 8 5 20 10
25 10 6 0 3 -5 -5 -10z m-96 -48 c-288 -186 -305 -611 -34 -815 107 -81 244
-117 367 -98 37 6 68 9 70 7 2 -1 -197 -76 -441 -165 -299 -110 -450 -161
-464 -157 -14 5 -28 27 -42 64 -39 102 -231 624 -271 734 -36 102 -37 108 -21
128 11 14 157 73 447 180 237 87 434 159 439 159 5 1 -18 -16 -50 -37z m-654
-52 c0 -27 1 -53 1 -57 2 -14 -125 -61 -132 -49 -12 21 -16 127 -5 134 6 4 36
10 66 13 30 3 58 7 63 8 4 0 7 -21 7 -49z m1060 15 c167 -59 279 -231 268
-410 -8 -125 -82 -250 -188 -317 l-45 -29 -11 33 c-11 31 -10 35 26 73 70 73
73 166 9 239 -35 40 -93 62 -194 72 -83 8 -106 16 -133 44 -75 80 4 190 136
190 49 0 52 1 52 26 0 26 -1 26 -65 22 l-64 -4 -15 36 c-14 34 -14 35 13 42
40 11 161 1 211 -17z m-272 -42 c11 -36 10 -39 -23 -73 -58 -60 -68 -114 -36
-187 26 -56 74 -79 200 -97 110 -15 150 -35 171 -86 41 -99 -50 -188 -181
-178 -43 3 -48 1 -52 -20 -6 -31 9 -36 92 -30 l69 5 10 -33 10 -33 -45 -7
c-79 -12 -184 1 -246 29 -79 36 -160 115 -200 196 -30 61 -32 72 -32 171 0
102 1 109 38 182 25 51 53 90 85 118 41 37 106 78 123 80 3 0 11 -17 17 -37z"/>
<path d="M7818 9656 c-8 -20 -8 -32 0 -52 17 -36 63 -30 76 9 13 36 -2 61 -37
65 -21 3 -30 -3 -39 -22z"/>
<path d="M7322 9528 c-18 -18 -15 -52 7 -72 41 -37 88 3 61 52 -17 30 -48 40
-68 20z"/>
<path d="M7767 9502 c-23 -25 -21 -59 4 -72 26 -14 43 -8 64 24 33 50 -28 92
-68 48z"/>
<path d="M9130 9455 c-143 -26 -248 -67 -364 -142 -117 -74 -145 -110 -114
-141 21 -21 46 -13 113 38 36 27 99 65 140 85 85 41 247 85 314 85 l46 0 -3
-81 c-4 -87 5 -109 43 -109 38 0 47 22 43 109 l-3 81 36 0 c50 0 212 -43 283
-74 53 -24 57 -28 44 -44 -30 -35 -68 -111 -68 -135 0 -24 16 -37 46 -37 13 0
43 40 82 114 l20 36 52 -41 c29 -23 70 -60 92 -83 48 -48 123 -145 117 -150
-2 -2 -32 -20 -66 -40 -72 -42 -77 -48 -69 -82 9 -35 46 -31 116 11 32 19 60
35 63 35 18 0 81 -205 93 -302 l6 -58 -72 0 c-83 0 -110 -11 -110 -45 0 -35
31 -47 111 -43 78 3 75 9 59 -92 -12 -73 -44 -177 -71 -232 l-19 -37 -60 35
c-76 44 -115 44 -115 -1 0 -26 8 -34 65 -68 36 -20 64 -43 62 -49 -11 -41
-157 -192 -232 -241 l-25 -16 -40 67 c-35 59 -44 67 -70 67 -45 0 -45 -39 0
-116 20 -34 34 -63 32 -65 -1 -2 -28 -15 -59 -28 -69 -30 -159 -54 -241 -64
l-62 -8 3 72 c5 82 -7 114 -42 114 -39 0 -48 -22 -44 -109 l3 -81 -50 6 c-99
12 -219 45 -300 83 -45 21 -85 43 -88 48 -4 6 28 18 76 28 102 22 117 29 117
60 0 46 -26 47 -196 9 -87 -19 -159 -36 -160 -37 -1 -1 18 -73 44 -160 48
-166 62 -189 102 -167 25 13 25 38 1 118 -11 34 -18 62 -16 62 1 0 40 -18 86
-39 148 -70 229 -86 419 -85 149 0 174 3 255 27 371 112 628 392 706 772 22
104 14 295 -15 410 -92 356 -365 628 -718 716 -108 26 -296 33 -398 14z"/>
<path d="M7450 9416 c-19 -24 -8 -60 23 -70 54 -19 91 36 45 68 -28 20 -52 20
-68 2z"/>
<path d="M7616 9399 c-17 -25 -12 -45 15 -60 24 -13 72 8 77 34 9 45 -64 66
-92 26z"/>
<path d="M8045 9021 c-119 -33 -197 -120 -220 -243 l-7 -38 75 0 c73 0 75 0
80 28 21 98 118 147 212 108 65 -28 89 -100 60 -186 -13 -38 -74 -128 -216
-318 l-199 -266 0 -63 0 -63 295 0 295 0 0 70 0 70 -195 2 -196 3 162 220 c89
121 173 244 187 274 73 157 14 337 -126 386 -56 19 -165 28 -207 16z"/>
<path d="M8756 8983 c-10 -21 -90 -192 -177 -381 -149 -322 -159 -346 -159
-402 l0 -60 225 0 225 0 0 -80 0 -80 70 0 70 0 0 80 0 80 40 0 40 0 0 65 0 65
-40 0 -40 0 0 160 0 160 -70 0 -70 0 0 -160 0 -160 -140 0 c-98 0 -140 3 -140
11 0 7 72 170 161 363 88 193 163 357 166 364 4 9 -14 12 -69 12 l-74 0 -18
-37z"/>
<path d="M9402 8878 c-5 -7 -31 -76 -58 -152 -40 -115 -54 -145 -86 -177 -47
-47 -50 -79 -8 -120 22 -23 37 -29 59 -27 25 3 64 -24 252 -167 243 -186 260
-198 283 -189 19 7 30 39 19 58 -4 8 -111 93 -237 189 -290 221 -277 194 -201
406 42 119 52 157 44 172 -11 21 -51 25 -67 7z"/>
<path d="M6328 8329 c-22 -12 -23 -52 -3 -69 23 -19 74 -3 81 26 11 44 -34 69
-78 43z"/>
<path d="M6484 8316 c-15 -39 32 -85 70 -70 26 10 32 55 11 71 -25 17 -74 17
-81 -1z"/>
<path d="M6186 8228 c-20 -28 -20 -52 -1 -68 21 -17 59 -5 74 23 29 53 -39 94
-73 45z"/>
<path d="M6629 8221 c-23 -19 -23 -21 -9 -48 12 -21 23 -28 44 -28 55 0 60 48
9 82 -17 12 -23 11 -44 -6z"/>
<path d="M6394 8131 c-73 -32 -84 -131 -20 -183 45 -37 127 -16 155 39 42 82
-50 180 -135 144z m56 -95 c0 -21 -21 -31 -30 -15 -5 7 -6 17 -4 21 9 14 34 9
34 -6z"/>
<path d="M6131 8076 c-17 -20 -10 -66 12 -80 28 -18 52 4 52 50 0 34 -3 39
-26 42 -14 2 -31 -4 -38 -12z"/>
<path d="M6686 8067 c-22 -16 -18 -75 7 -91 41 -26 78 52 42 88 -20 19 -26 20
-49 3z"/>
<path d="M1447 8044 c-12 -12 -8 -51 7 -64 35 -28 93 11 70 48 -11 17 -64 29
-77 16z"/>
<path d="M1612 8038 c-28 -28 -6 -68 39 -68 15 0 35 7 43 16 19 18 19 20 6 45
-12 22 -68 27 -88 7z"/>
<path d="M1782 8034 c-21 -37 14 -72 64 -62 26 5 41 34 28 56 -15 24 -79 29
-92 6z"/>
<path d="M1962 8038 c-28 -28 -6 -68 39 -68 32 0 52 21 47 52 -2 18 -10 24
-38 26 -19 2 -41 -3 -48 -10z"/>
<path d="M2130 8030 c-17 -32 4 -60 46 -60 27 0 37 5 46 25 15 33 -4 55 -48
55 -23 0 -37 -6 -44 -20z"/>
<path d="M2307 8043 c-11 -11 -8 -48 5 -61 17 -17 63 -15 78 3 7 8 10 25 6 40
-5 21 -12 25 -45 25 -21 0 -41 -3 -44 -7z"/>
<path d="M2482 8038 c-30 -30 -5 -68 45 -68 39 0 60 28 43 60 -12 23 -68 28
-88 8z"/>
<path d="M2657 8044 c-4 -4 -7 -20 -7 -35 0 -22 6 -30 24 -35 52 -13 92 18 70
54 -11 17 -74 29 -87 16z"/>
<path d="M2832 8038 c-28 -28 -6 -68 38 -68 38 0 52 14 48 46 -3 25 -8 29 -38
32 -19 2 -41 -3 -48 -10z"/>
<path d="M3000 8031 c-17 -33 4 -63 42 -59 63 6 63 70 0 76 -23 2 -34 -2 -42
-17z"/>
<path d="M5347 8023 c-16 -15 -5 -49 25 -80 l32 -33 -32 -33 c-33 -34 -40 -65
-20 -85 20 -20 42 -14 73 18 16 17 34 30 40 30 6 0 24 -13 40 -30 31 -32 53
-38 73 -18 20 20 14 45 -19 83 l-32 36 32 32 c33 35 38 56 19 75 -20 20 -53
13 -83 -18 l-28 -29 -34 29 c-32 28 -71 39 -86 23z"/>
<path d="M6172 7918 c-16 -16 -15 -39 4 -66 33 -47 100 -11 73 41 -20 38 -53
49 -77 25z"/>
<path d="M6616 7888 c-21 -29 -20 -41 4 -63 18 -16 21 -16 44 -2 13 9 27 26
31 37 15 47 -50 69 -79 28z"/>
<path d="M6300 7805 c-17 -21 -8 -47 22 -65 33 -18 61 -6 66 30 7 42 -60 68
-88 35z"/>
<path d="M6471 7796 c-7 -8 -11 -25 -9 -38 2 -18 10 -24 36 -26 42 -4 64 14
60 47 -3 22 -9 26 -39 29 -23 2 -40 -2 -48 -12z"/>
<path d="M792 7684 c-26 -18 -28 -37 -6 -58 14 -14 160 -16 1455 -16 974 0
1447 3 1460 10 23 13 25 43 3 64 -14 14 -159 16 -1452 16 -1285 0 -1440 -2
-1460 -16z"/>
<path d="M5620 7380 c-8 -14 -8 -26 0 -40 11 -20 19 -20 782 -18 722 3 772 4
782 21 8 12 8 22 0 35 -10 16 -60 17 -782 20 -763 2 -771 2 -782 -18z"/>
<path d="M10179 7276 c-102 -27 -190 -103 -238 -205 -23 -49 -26 -69 -26 -156
0 -90 3 -106 28 -155 37 -72 105 -141 176 -176 54 -28 61 -29 206 -29 150 0
151 0 217 33 119 58 194 170 205 308 14 164 -97 325 -258 375 -71 22 -237 25
-310 5z m227 -81 c175 -78 232 -301 118 -458 -171 -235 -546 -113 -548 178 -1
86 14 131 63 193 87 109 237 145 367 87z m258 -173 c34 -98 10 -227 -54 -302
l-31 -35 33 65 c31 61 33 72 33 165 0 93 -2 106 -32 165 l-32 65 34 -38 c19
-22 41 -60 49 -85z"/>
<path d="M10260 7131 c0 -11 -12 -23 -30 -31 -39 -16 -60 -46 -60 -86 0 -44
24 -70 105 -112 62 -33 70 -41 73 -69 6 -62 -80 -83 -133 -33 -20 19 -55 19
-55 1 0 -13 54 -59 78 -66 13 -4 22 -14 22 -26 0 -12 7 -19 20 -19 13 0 20 7
20 19 0 12 9 21 26 25 44 11 74 50 74 94 0 53 -20 75 -107 117 -66 31 -73 37
-73 64 0 55 65 79 113 41 23 -18 57 -19 57 -1 0 13 -44 48 -67 56 -14 4 -23
14 -23 26 0 12 -7 19 -20 19 -13 0 -20 -7 -20 -19z"/>
<path d="M6661 7146 c-7 -8 -11 -25 -9 -38 2 -19 9 -23 37 -23 41 0 62 25 45
53 -14 22 -57 27 -73 8z"/>
<path d="M6844 7152 c-17 -11 -22 -35 -12 -54 6 -13 21 -18 48 -18 34 0 41 4
46 25 4 15 1 32 -6 40 -13 16 -57 20 -76 7z"/>
<path d="M7030 7146 c-6 -8 -10 -25 -8 -38 3 -20 9 -23 48 -23 39 0 45 3 48
23 5 31 -15 52 -48 52 -15 0 -33 -7 -40 -14z"/>
<path d="M7220 7146 c-6 -8 -10 -25 -8 -38 3 -20 9 -23 48 -23 39 0 45 3 48
23 5 31 -15 52 -48 52 -15 0 -33 -7 -40 -14z"/>
<path d="M7410 7145 c-7 -8 -10 -25 -6 -40 5 -21 12 -25 46 -25 29 0 42 5 50
19 13 25 13 27 -6 45 -20 20 -68 21 -84 1z"/>
<path d="M7602 7148 c-30 -30 -5 -68 43 -68 50 0 71 33 39 64 -18 19 -65 21
-82 4z"/>
<path d="M7788 7135 c-8 -19 -8 -28 2 -40 18 -22 67 -19 80 4 13 25 13 27 -6
45 -24 25 -63 20 -76 -9z"/>
<path d="M2822 6863 c-11 -10 -156 -214 -322 -453 -166 -239 -312 -443 -323
-453 -161 -134 -225 -275 -197 -434 36 -211 228 -375 466 -399 l64 -7 0 -823
0 -824 -295 0 c-165 0 -295 4 -295 9 0 16 -70 646 -75 678 -9 53 -66 68 -80
22 -6 -18 -18 -19 -204 -19 l-198 0 -6 28 c-9 46 -50 96 -97 119 -43 22 -54
23 -312 23 -298 0 -312 -2 -365 -63 -81 -92 -64 -216 38 -284 l42 -28 258 -3
c167 -2 272 1 299 8 44 12 115 69 125 101 6 18 18 19 216 19 115 0 209 -4 209
-9 0 -4 49 -452 109 -994 119 -1071 113 -1033 183 -1092 69 -58 20 -56 1032
-56 1050 0 983 -5 1054 77 47 53 54 75 88 292 l27 172 628 0 c417 0 629 -3
629 -10 0 -6 -39 -165 -86 -355 l-86 -345 -412 0 c-389 0 -413 -1 -443 -20
-65 -39 -84 -125 -48 -212 7 -17 -10 -18 -279 -18 -157 0 -286 3 -286 6 0 4 9
21 20 40 27 42 35 117 21 172 -15 53 -73 119 -126 143 -188 86 -384 -122 -290
-307 14 -27 25 -50 25 -51 0 -2 -178 -3 -395 -3 -217 0 -395 1 -395 3 0 1 11
24 25 51 76 149 -33 326 -200 326 -168 0 -275 -180 -196 -330 11 -22 21 -43
21 -45 0 -3 -274 -5 -609 -5 -534 0 -610 -2 -621 -15 -10 -12 -10 -21 -2 -40
l12 -25 4791 2 c4551 3 4792 4 4803 20 8 13 8 23 0 35 -10 17 -43 18 -413 21
l-401 2 0 1220 0 1220 -164 0 -164 0 -7 73 c-11 115 -54 334 -80 414 -80 236
-187 346 -338 346 -35 0 -73 -6 -85 -12 l-22 -12 0 181 0 180 33 0 c62 1 173
30 246 66 95 47 178 129 223 221 31 65 33 73 33 179 0 107 -1 112 -38 186 -27
56 -54 92 -100 135 -48 44 -137 164 -371 503 -169 245 -315 451 -324 458 -13
9 -625 12 -2983 12 -2811 0 -2968 -1 -2987 -17z m1285 -100 c-3 -16 -45 -250
-93 -520 l-88 -493 -399 0 c-219 0 -396 4 -393 8 3 5 91 229 196 498 106 269
196 499 201 512 l9 22 286 0 287 0 -6 -27z m1653 -493 l0 -520 -410 0 -410 0
0 29 c0 15 20 241 45 501 25 260 45 481 45 491 0 18 16 19 365 19 l365 0 0
-520z m1712 15 c59 -275 107 -508 108 -517 0 -17 -26 -18 -413 -18 l-413 0
-48 478 c-26 262 -50 496 -53 520 l-6 42 359 -2 359 -3 107 -500z m1587 60
c216 -311 326 -460 374 -507 37 -36 67 -71 67 -77 0 -8 -134 -11 -459 -11
l-458 0 -88 268 c-49 147 -125 381 -171 520 l-82 252 255 -2 255 -3 307 -440z
m-5149 -672 c0 -39 -36 -195 -53 -232 -28 -62 -119 -150 -188 -183 -154 -75
-352 -65 -491 23 -53 34 -119 102 -142 148 -16 30 -15 34 26 141 l43 110 402
0 c222 0 403 -3 403 -7z m1850 -106 c0 -123 -8 -144 -84 -225 -142 -151 -422
-179 -608 -61 -54 35 -119 102 -143 149 -17 32 -16 114 2 218 l5 32 414 0 414
0 0 -113z m1844 96 c19 -68 37 -177 32 -196 -3 -13 -23 -48 -46 -79 -138 -193
-452 -238 -661 -95 -36 24 -78 65 -101 97 -40 57 -41 59 -62 243 l-6 47 420 0
c390 0 419 -1 424 -17z m1942 -28 c33 -226 -176 -426 -446 -426 -153 0 -298
66 -375 171 -30 41 -115 257 -115 292 0 4 209 8 464 8 l465 0 7 -45z m-5605
-291 c7 -15 40 -51 73 -80 l59 -54 -152 0 -152 0 58 54 c32 30 65 66 72 80 18
33 24 33 42 0z m3882 -119 c19 -14 6 -15 -137 -15 l-158 0 49 38 c26 21 61 57
77 80 l29 42 59 -65 c33 -36 70 -72 81 -80z m-2851 20 l42 -35 -146 0 -146 0
72 73 71 72 33 -37 c18 -20 51 -53 74 -73z m1880 -4 l42 -31 -146 0 -147 0 72
73 72 73 32 -42 c18 -23 51 -56 75 -73z m1896 -4 c61 -45 162 -94 213 -102
l39 -7 0 -889 0 -889 -140 0 c-102 0 -141 3 -147 13 -4 7 -66 64 -138 127 -71
62 -131 116 -132 119 -2 3 25 22 59 41 137 78 165 113 116 144 -13 7 -80 31
-150 51 l-128 38 0 631 0 632 38 13 c67 24 151 81 204 140 l52 58 33 -42 c17
-23 54 -59 81 -78z m-2968 -902 l0 -985 -140 0 -140 0 0 895 c0 844 1 896 18
901 62 21 151 73 200 119 31 30 58 54 60 55 1 0 2 -443 2 -985z m-2840 55 l0
-920 -170 0 -170 0 0 829 0 828 38 7 c87 15 199 75 264 142 18 19 34 34 36 34
1 0 2 -414 2 -920z m175 828 c5 -5 -12 -8 -38 -8 l-47 0 0 42 0 42 38 -35 c20
-18 41 -37 47 -41z m2802 22 l34 -30 -41 0 c-38 0 -40 2 -40 30 0 17 3 30 6
30 4 0 22 -13 41 -30z m-507 -332 l0 -213 -24 50 c-26 56 -79 113 -114 122
-22 5 -21 6 13 32 39 29 85 88 85 109 0 25 -87 55 -149 49 -31 -2 -63 -7 -72
-11 -13 -6 -16 -2 -12 17 6 28 -17 50 -49 45 -29 -4 -80 -104 -98 -192 -7 -33
-14 -62 -16 -64 -1 -2 -15 3 -31 11 -100 51 -201 14 -274 -101 l-27 -42 -24
47 c-16 31 -42 60 -72 80 l-47 32 27 18 c31 20 84 89 84 110 0 26 -87 56 -149
50 -31 -2 -65 -8 -75 -12 -14 -6 -17 -5 -12 4 4 7 5 23 2 37 -6 21 -12 25 -38
22 -26 -3 -35 -11 -59 -58 -16 -30 -36 -87 -45 -127 l-16 -71 -31 13 c-124 50
-230 1 -293 -138 -24 -53 -28 -75 -28 -147 0 -114 27 -182 100 -256 l54 -54
-177 0 -178 0 30 19 c48 30 102 92 127 146 61 132 -1 368 -110 422 l-40 20 29
17 c33 20 89 91 89 113 0 26 -87 56 -149 50 -31 -2 -64 -7 -73 -11 -13 -6 -15
-3 -11 13 14 55 -54 69 -85 19 -24 -39 -58 -138 -67 -190 -6 -36 -18 -48 -29
-29 -3 5 -28 14 -55 21 -196 47 -348 -234 -247 -456 14 -30 48 -77 76 -104
l51 -50 -85 0 -86 0 0 425 0 425 1190 0 1190 0 0 -212z m2840 -213 l0 -425
-147 0 c-106 1 -143 4 -130 11 24 14 57 82 57 119 0 21 9 38 28 55 25 21 27
29 27 93 0 61 -3 74 -24 96 -21 23 -25 36 -25 99 -1 60 -6 81 -31 126 -85 155
-326 234 -562 185 -197 -40 -316 -154 -319 -306 -1 -62 -4 -69 -32 -92 -50
-43 -55 -149 -7 -200 13 -14 25 -44 29 -71 5 -30 18 -58 38 -80 l30 -35 -168
0 -168 0 27 28 c16 16 31 48 38 80 6 31 21 63 35 77 40 40 32 167 -13 200 -10
7 -15 35 -16 85 -2 51 -8 88 -22 115 -61 123 -230 205 -425 205 -263 0 -450
-132 -450 -316 0 -58 -3 -65 -35 -97 -32 -32 -35 -40 -35 -96 0 -53 4 -65 30
-94 20 -23 30 -45 30 -66 0 -36 13 -65 43 -98 l20 -23 -101 0 -102 0 0 425 0
425 1190 0 1190 0 0 -425z m-4567 304 c7 0 -24 -11 -68 -24 -44 -13 -81 -22
-83 -20 -14 14 98 57 126 49 8 -2 19 -4 25 -5z m752 -25 c-44 -13 -81 -21 -83
-20 -7 8 56 40 88 46 75 13 72 -4 -5 -26z m760 0 c-44 -13 -81 -21 -83 -19 -7
7 49 38 81 44 17 4 43 5 57 2 18 -3 3 -10 -55 -27z m2571 -23 c104 -37 183
-124 184 -203 0 -61 21 -58 -370 -58 -393 0 -370 -4 -370 61 0 99 96 180 265
223 49 12 231 -2 291 -23z m-4071 9 c-12 -20 -85 -50 -120 -50 -55 0 -41 14
38 37 88 25 90 26 82 13z m816 -4 c-19 -23 -77 -46 -115 -46 -56 0 -43 14 37
37 90 26 92 26 78 9z m769 9 c0 -14 -92 -55 -123 -55 -58 0 -43 15 36 38 80
23 87 24 87 17z m1381 -24 c65 -25 141 -87 158 -129 7 -16 11 -51 9 -78 l-3
-49 -349 -3 c-217 -1 -353 1 -359 7 -15 15 -11 95 7 128 31 60 105 112 198
138 79 22 266 15 339 -14z m-3146 -77 c13 -5 14 -8 3 -15 -19 -13 -28 -11 -28
6 0 17 2 18 25 9z m820 0 c13 -5 14 -8 3 -15 -19 -13 -28 -11 -28 6 0 17 2 18
25 9z m760 0 c13 -5 14 -8 3 -15 -19 -13 -28 -11 -28 6 0 17 2 18 25 9z
m-1423 -124 c35 -27 58 -80 58 -130 0 -39 -1 -41 -27 -38 -23 2 -29 9 -34 40
-6 39 -33 88 -49 88 -15 0 -12 47 3 53 20 9 23 8 49 -13z m829 -8 c20 -18 35
-45 44 -80 16 -62 11 -82 -20 -82 -24 0 -35 17 -35 55 0 14 -13 40 -30 58 -33
38 -36 47 -18 65 17 17 24 15 59 -16z m747 12 c34 -23 64 -89 60 -132 -3 -32
-6 -37 -28 -37 -21 0 -26 6 -31 37 -6 39 -33 88 -49 88 -15 0 -12 47 3 53 19
8 21 8 45 -9z m4029 -65 c121 -59 216 -305 251 -652 l8 -77 -180 2 -181 3 -3
35 c-6 79 -35 251 -58 342 -19 75 -24 123 -24 216 l0 120 33 16 c44 22 103 20
154 -5z m-3117 -96 c0 -5 -7 -16 -14 -26 -10 -13 -15 -14 -23 -5 -25 33 -24
38 6 38 17 0 31 -3 31 -7z m254 -18 c-9 -14 -18 -25 -19 -25 -1 0 -10 11 -19
25 l-16 25 35 0 35 0 -16 -25z m266 5 c-12 -23 -21 -25 -38 -8 -20 20 -14 28
18 28 28 0 30 -2 20 -20z m580 0 c-12 -23 -21 -25 -38 -8 -20 20 -14 28 18 28
28 0 30 -2 20 -20z m268 0 c-7 -11 -17 -20 -23 -20 -6 0 -16 9 -23 20 -11 19
-10 20 23 20 33 0 34 -1 23 -20z m272 12 c0 -10 -22 -32 -32 -32 -4 0 -12 9
-18 20 -10 18 -8 20 20 20 16 0 30 -4 30 -8z m-403 -68 c-3 -3 -17 -4 -31 -2
-26 3 -26 4 -10 26 l16 23 15 -21 c8 -12 13 -24 10 -26z m248 -2 c-35 -4 -39
1 -23 27 l13 22 19 -23 c18 -23 18 -23 -9 -26z m280 0 c-8 -2 -24 -2 -35 0
-20 3 -20 4 -4 27 l17 24 18 -24 c15 -20 16 -25 4 -27z m-1647 26 c19 -19 14
-28 -18 -28 -28 0 -29 2 -18 20 15 23 20 24 36 8z m270 -8 c11 -18 10 -20 -18
-20 -32 0 -37 9 -18 28 16 16 21 15 36 -8z m262 0 c10 -18 8 -20 -20 -20 -28
0 -30 2 -20 20 6 11 15 20 20 20 5 0 14 -9 20 -20z m-1400 -175 l0 -85 -82 0
-81 0 39 29 c44 31 91 83 107 118 6 13 12 23 14 23 1 0 3 -38 3 -85z m-736 31
c14 -24 45 -60 68 -80 l42 -36 -143 0 -142 0 58 54 c32 30 65 66 72 80 8 14
15 26 17 26 1 0 14 -20 28 -44z m2151 7 c-14 -58 -10 -58 -333 -61 -163 -2
-311 -1 -329 3 -40 7 -63 29 -63 61 l0 24 366 0 366 0 -7 -27z m1115 4 c0 -13
-9 -32 -21 -43 -20 -18 -41 -19 -351 -19 l-330 0 -19 24 c-10 13 -19 32 -19
42 0 18 14 19 370 19 l370 0 0 -23z m-6724 -162 c24 -10 39 -25 50 -51 20 -47
11 -87 -28 -119 l-30 -25 -254 0 c-270 0 -300 4 -324 49 -28 54 8 143 63 154
12 2 127 5 255 6 184 1 240 -2 268 -14z m4194 -475 l0 -420 -120 0 -120 0 0
194 0 194 -30 57 c-33 63 -40 129 -15 139 13 5 15 20 13 78 l-3 73 -180 0
-180 0 -3 -73 c-2 -58 0 -73 13 -78 25 -10 18 -76 -15 -139 l-30 -57 0 -195 0
-194 -47 3 -48 3 -1 182 c-2 202 -5 222 -40 275 -31 48 -33 108 -4 126 16 10
20 23 20 71 0 38 -5 63 -14 70 -9 8 -68 11 -187 9 l-174 -3 -3 -73 c-2 -58 0
-73 13 -78 25 -10 19 -84 -12 -140 -26 -46 -28 -58 -31 -184 l-4 -135 -44 4
-44 3 0 117 c0 120 -16 197 -46 222 -20 16 -19 105 1 113 13 5 15 20 13 78
l-3 73 -174 3 c-119 2 -178 -1 -187 -9 -9 -7 -14 -32 -14 -70 0 -48 4 -61 20
-71 30 -19 27 -79 -7 -130 -27 -40 -28 -48 -31 -185 l-3 -143 -50 0 -49 0 0
129 c0 124 -1 131 -30 186 -35 67 -39 116 -10 145 14 14 20 33 20 68 0 83 0
83 -200 80 l-175 -3 -3 -73 c-2 -58 0 -73 13 -78 21 -8 21 -91 -1 -115 -32
-35 -43 -92 -44 -216 l0 -123 -65 0 -65 0 0 355 0 355 1190 0 1190 0 0 -420z
m2840 285 c0 -74 -1 -135 -2 -135 -2 0 -43 13 -93 29 -89 28 -90 28 -96 65 -3
20 -11 42 -18 49 -16 16 -14 24 10 30 12 3 19 12 17 19 -7 19 -439 19 -446 0
-2 -6 6 -16 18 -20 l21 -8 -20 -26 c-20 -25 -21 -38 -21 -347 0 -310 1 -321
20 -331 38 -21 20 -30 -60 -30 -44 0 -80 3 -80 7 0 3 7 14 15 23 14 15 16 64
16 338 1 278 -1 323 -15 345 -16 23 -16 25 4 30 11 3 20 12 20 21 0 14 -25 16
-220 16 -213 0 -220 -1 -220 -20 0 -11 7 -20 15 -20 19 0 19 -9 0 -34 -13 -17
-15 -74 -15 -340 0 -314 0 -320 22 -343 l21 -23 -86 0 c-89 0 -102 6 -67 28
19 12 20 23 20 335 -1 267 -3 325 -15 341 -19 25 -19 36 0 36 8 0 15 9 15 20
0 20 -5 20 -217 18 -168 -2 -217 -6 -221 -16 -2 -7 5 -16 17 -19 l21 -5 -20
-28 c-19 -27 -20 -45 -20 -349 0 -310 1 -321 20 -333 35 -22 22 -28 -67 -28
l-86 0 21 23 c22 23 22 29 22 341 0 259 -3 322 -15 345 -13 27 -13 29 6 34 12
3 19 12 17 19 -4 10 -53 14 -221 16 -212 2 -217 2 -217 -18 0 -12 7 -20 16
-20 13 0 12 -5 -5 -34 -20 -32 -21 -47 -21 -344 l0 -311 27 -26 28 -25 -113 0
-112 0 0 420 0 420 1190 0 1190 0 0 -135z m-1840 15 c10 -20 8 -20 -145 -20
-153 0 -155 0 -143 20 12 18 24 20 145 20 122 0 133 -2 143 -20z m518 8 c7 -7
12 -16 12 -20 0 -4 -68 -8 -150 -8 -148 0 -150 0 -140 20 10 18 21 20 138 20
86 0 132 -4 140 -12z m532 -8 c10 -20 8 -20 -140 -20 -82 0 -150 4 -150 8 0
26 30 32 152 32 117 0 128 -2 138 -20z m524 4 c3 -9 6 -18 6 -20 0 -2 -68 -4
-150 -4 -148 0 -150 0 -140 20 10 18 21 20 144 20 113 0 135 -2 140 -16z
m-4484 -64 c0 -6 -47 -10 -120 -10 -73 0 -120 4 -120 10 0 6 47 10 120 10 73
0 120 -4 120 -10z m520 0 c0 -6 -47 -10 -120 -10 -73 0 -120 4 -120 10 0 6 47
10 120 10 73 0 120 -4 120 -10z m530 0 c0 -6 -47 -10 -120 -10 -73 0 -120 4
-120 10 0 6 47 10 120 10 73 0 120 -4 120 -10z m530 0 c0 -6 -48 -10 -125 -10
-77 0 -125 4 -125 10 0 6 48 10 125 10 77 0 125 -4 125 -10z m1350 -24 c-8 -8
-88 -61 -177 -120 l-163 -105 0 119 0 120 177 0 c152 0 175 -2 163 -14z m530
7 c0 -8 -322 -223 -334 -223 -3 0 -6 52 -6 115 l0 115 170 0 c94 0 170 -3 170
-7z m530 2 c0 -4 -291 -201 -337 -229 -10 -6 -13 20 -13 113 l0 121 175 0 c96
0 175 -2 175 -5z m328 -48 c12 -29 22 -57 22 -63 0 -6 -38 -36 -85 -68 l-85
-56 0 120 0 120 63 0 63 0 22 -53z m-4356 -77 c3 -42 10 -66 25 -82 13 -15 21
-38 21 -63 1 -22 6 -41 12 -43 6 -2 10 -36 10 -78 l0 -74 -150 0 -150 0 0 75
0 75 120 0 c124 0 130 2 110 41 -10 17 -22 19 -115 19 -58 0 -105 4 -105 9 0
5 11 23 25 39 20 24 25 41 25 86 l0 56 84 0 84 0 4 -60z m528 3 c0 -44 5 -62
22 -80 23 -24 25 -37 35 -175 l5 -88 -151 0 -151 0 0 75 0 75 121 0 120 0 -3
28 -3 27 -107 3 c-68 2 -108 7 -108 13 0 6 9 22 20 36 15 19 20 41 20 84 l0
59 90 0 90 0 0 -57z m530 1 c0 -41 6 -64 22 -87 15 -21 21 -42 19 -69 -1 -21
3 -38 9 -38 6 0 10 -30 10 -75 l0 -75 -150 0 -150 0 0 75 0 75 120 0 c125 0
130 2 114 44 -5 13 -25 16 -115 16 -60 0 -109 3 -109 7 0 3 11 21 25 39 20 26
25 44 25 88 l0 56 90 0 90 0 0 -56z m520 2 c0 -39 6 -60 21 -81 25 -31 28 -44
36 -172 l6 -93 -146 0 -145 0 -4 71 c-2 39 -1 73 1 75 2 2 58 4 123 4 121 0
128 2 108 41 -10 17 -22 19 -115 19 -58 0 -105 4 -105 8 0 4 11 23 25 42 19
26 25 46 25 87 l0 53 85 0 85 0 0 -54z m1400 -196 l0 -250 -175 0 -175 0 0 73
0 72 130 90 c115 79 130 92 130 118 l0 28 -82 -57 c-46 -32 -104 -73 -130 -92
l-48 -34 0 39 c1 38 1 39 142 133 180 121 191 128 201 129 4 1 7 -111 7 -249z
m523 -27 l-6 -223 -169 0 -168 0 0 73 0 74 130 89 c113 78 129 92 130 117 0
33 10 38 -135 -63 -146 -102 -135 -97 -135 -56 0 35 4 38 133 124 72 49 138
97 146 106 7 9 22 16 32 16 10 0 21 5 25 12 18 28 23 -58 17 -269z m527 27 l0
-250 -175 0 -175 0 0 73 1 72 134 93 c111 77 135 97 135 117 0 14 -3 25 -6 25
-3 0 -51 -32 -107 -72 -56 -39 -114 -80 -129 -90 l-28 -19 0 38 c0 38 1 39
117 113 64 41 130 86 147 100 23 20 61 42 84 49 1 1 2 -111 2 -249z m729 160
c146 -44 266 -82 267 -83 2 -2 -44 -31 -101 -65 -57 -34 -108 -68 -112 -75 -4
-7 -31 -63 -59 -125 -29 -63 -54 -109 -58 -104 -3 5 -42 95 -87 198 -45 104
-96 224 -115 267 -28 65 -31 77 -16 73 9 -3 136 -42 281 -86z m880 -320 c-4
-25 -6 45 -6 155 l1 200 5 -155 c3 -85 3 -175 0 -200z m431 -785 l0 -1135
-405 0 -405 0 0 439 0 438 68 5 c125 9 225 75 274 183 22 48 23 63 28 369 4
272 7 317 19 303 26 -33 84 -19 106 24 19 36 19 72 -1 111 -13 24 -17 73 -21
215 l-5 183 171 0 171 0 0 -1135z m170 99 l0 -1036 -36 -49 c-20 -27 -38 -49
-40 -49 -2 0 -4 488 -4 1085 l0 1085 40 0 40 0 0 -1036z m160 -51 l0 -1087
-35 50 -35 49 0 1037 0 1038 35 0 35 0 0 -1087z m-1979 1026 c13 -25 21 -17
-108 -107 l-103 -72 0 39 c0 37 3 40 93 99 50 33 95 61 99 61 4 1 12 -8 19
-20z m79 -189 c31 -72 50 -128 50 -152 l0 -38 -170 0 -170 0 0 73 0 73 118 81
c64 45 118 80 119 79 1 -1 25 -53 53 -116z m534 -164 c83 -73 123 -113 116
-120 -7 -7 -19 -1 -37 15 -16 14 -73 65 -128 114 -55 48 -102 92 -104 97 -10
27 38 -7 153 -106z m-3914 -31 l0 -35 -119 0 c-115 0 -120 1 -150 27 -17 15
-31 31 -31 35 0 5 68 8 150 8 l150 0 0 -35z m520 0 l0 -35 -145 0 -145 0 0 35
0 35 145 0 145 0 0 -35z m3325 -57 c5 -5 -12 -8 -38 -8 l-47 0 0 42 0 42 38
-35 c20 -18 41 -37 47 -41z m-6060 0 c3 -13 15 -92 28 -175 l23 -153 -223 0
-223 0 -1 23 c0 12 -8 91 -18 175 l-17 152 213 0 c212 0 213 0 218 -22z m145
-155 c0 -97 -2 -174 -4 -172 -4 3 -56 326 -56 343 0 3 14 6 30 6 l30 0 0 -177z
m430 162 c0 -13 -26 -15 -170 -15 -144 0 -170 2 -170 15 0 13 26 15 170 15
144 0 170 -2 170 -15z m148 -2 c-2 -11 -14 -19 -31 -21 -22 -3 -27 1 -27 17 0
17 6 21 31 21 24 0 30 -4 27 -17z m600 0 c-3 -14 -13 -18 -48 -18 -35 0 -45 4
-48 18 -3 14 4 17 48 17 44 0 51 -3 48 -17z m520 -5 c3 -15 -4 -18 -42 -18
-40 0 -46 3 -46 21 0 18 5 20 42 17 31 -2 44 -8 46 -20z m3862 -4 c0 -9 -10
-14 -27 -14 -25 0 -26 1 -8 20 19 21 35 18 35 -6z m-1737 9 c-34 -2 -93 -2
-130 0 -37 2 -9 3 62 3 72 0 102 -1 68 -3z m525 0 c-38 -2 -98 -2 -135 0 -38
2 -7 3 67 3 74 0 105 -1 68 -3z m530 0 c-38 -2 -98 -2 -135 0 -38 2 -7 3 67 3
74 0 105 -1 68 -3z m525 0 c-34 -2 -93 -2 -130 0 -37 2 -9 3 62 3 72 0 102 -1
68 -3z m-4935 -110 l112 -6 0 -109 0 -108 -245 0 -245 0 0 115 0 115 133 0
c72 0 183 -3 245 -7z m5153 -24 c24 -24 34 -24 58 0 17 17 40 21 180 27 l160
7 36 -32 c20 -17 40 -31 46 -31 6 0 24 14 41 30 l30 30 159 0 159 0 0 -252 c0
-154 -4 -269 -11 -293 -15 -53 -91 -129 -144 -144 -22 -6 -59 -11 -82 -11
l-42 0 -3 88 -3 87 -141 3 -141 3 -13 57 c-30 138 -98 259 -174 311 -98 68
-234 77 -338 23 l-51 -27 -51 25 c-70 34 -187 35 -263 1 -103 -46 -201 -186
-233 -333 l-13 -58 -221 -2 -221 -3 -3 -87 -3 -88 -1285 0 c-1219 0 -1285 1
-1280 18 2 9 28 164 57 344 l53 328 551 2 c302 2 1139 1 1858 0 1272 -4 1309
-4 1328 -23z m-4355 -26 c-4 -27 -12 -76 -18 -110 l-10 -63 -284 0 -284 0 0
110 0 110 301 0 301 0 -6 -47z m521 20 c-3 -16 -11 -65 -18 -110 l-12 -83
-214 0 c-199 0 -214 1 -209 18 2 9 10 59 17 110 l13 92 214 0 215 0 -6 -27z
m3882 -181 c74 -45 111 -112 158 -285 4 -16 -6 -17 -142 -15 l-147 3 -18 72
c-19 73 -41 125 -79 187 l-22 35 23 12 c67 36 160 32 227 -9z m-450 17 c28 -6
53 -15 57 -20 3 -5 -4 -23 -16 -39 -28 -40 -65 -131 -80 -202 l-13 -58 -144 0
c-78 0 -143 4 -143 9 0 5 11 42 25 82 42 126 115 208 202 228 53 12 55 12 112
0z m165 -136 c24 -48 56 -145 56 -170 0 -10 -22 -13 -91 -13 -81 0 -90 2 -85
18 3 9 8 31 12 47 9 42 65 165 75 165 5 0 19 -21 33 -47z m-5460 -10 c3 -16
15 -91 26 -168 11 -77 23 -152 26 -167 l6 -28 -235 0 -234 0 -17 168 c-9 92
-19 179 -21 195 l-4 27 223 0 224 0 6 -27z m656 -63 l0 -90 -60 0 c-47 0 -62
-4 -67 -16 -4 -10 1 -22 11 -30 17 -12 17 -14 2 -36 -9 -13 -16 -43 -16 -70
l0 -48 -82 0 c-114 0 -154 13 -209 69 -57 56 -69 95 -69 219 l0 92 245 0 245
0 0 -90z m640 71 c0 -11 -11 -91 -25 -178 -14 -87 -25 -164 -25 -170 0 -10
-35 -13 -140 -13 l-140 0 0 50 c0 30 -7 61 -16 75 -15 22 -15 25 -1 25 20 0
29 14 21 34 -5 13 -25 16 -115 16 l-109 0 0 90 0 90 275 0 c264 0 275 -1 275
-19z m520 12 c0 -5 -14 -87 -30 -183 -16 -96 -30 -178 -30 -182 0 -5 -95 -8
-211 -8 l-211 0 6 28 c3 15 14 90 26 167 11 77 23 150 26 163 4 22 5 22 214
22 116 0 210 -3 210 -7z m-1160 -243 c0 -16 -7 -20 -30 -20 -32 0 -37 9 -18
28 19 19 48 15 48 -8z m238 0 c12 -19 10 -20 -73 -20 -78 0 -85 2 -85 20 0 18
7 20 73 20 61 0 74 -3 85 -20z m3948 -122 c-4 -46 -9 -99 -12 -120 -5 -31 -3
-38 19 -53 55 -36 134 18 94 63 -18 20 -22 85 -11 155 l7 37 298 0 299 0 1
-67 c2 -89 -1 -114 -13 -137 -9 -16 -6 -24 16 -43 31 -26 44 -28 80 -12 33 15
40 37 21 65 -10 16 -15 49 -15 109 l0 86 143 -3 142 -3 3 -562 2 -563 -705 0
-705 0 0 565 0 565 171 0 172 0 -7 -82z m1214 -435 l0 -517 -22 -23 c-12 -13
-25 -23 -30 -23 -10 0 -11 1064 -1 1073 3 4 17 7 30 7 l23 0 0 -517z m140 -24
c0 -568 2 -549 -42 -511 -17 14 -18 52 -18 527 0 281 3 515 7 518 3 4 17 7 30
7 l23 0 0 -541z m-5540 476 c0 -34 -1 -35 -40 -35 -39 0 -40 1 -40 35 0 34 1
35 40 35 39 0 40 -1 40 -35z m260 30 c0 -2 -20 -18 -44 -35 -32 -21 -56 -30
-85 -30 -40 0 -41 1 -41 35 l0 35 85 0 c47 0 85 -2 85 -5z m-745 -64 c-11 -10
-35 11 -35 30 0 21 0 21 19 -2 11 -13 18 -26 16 -28z m-101 -97 c3 -9 6 -24 6
-35 0 -18 -9 -19 -162 -19 l-163 0 -35 -42 -35 -43 -5 -130 -5 -130 -18 35
c-17 33 -60 355 -50 373 2 4 107 7 233 7 199 0 229 -2 234 -16z m456 -214 c0
-198 -2 -230 -15 -230 -13 0 -15 28 -15 190 0 168 -2 191 -16 197 -10 4 -22 0
-29 -10 -10 -15 -14 -15 -31 -2 -14 11 -50 14 -135 15 -124 0 -129 2 -129 51
0 18 9 19 185 19 l185 0 0 -230z m395 173 c-1 -29 -2 -123 -3 -208 l-2 -155
-85 0 -85 0 0 135 0 134 45 31 c33 22 45 38 45 55 0 31 -5 31 -46 0 -40 -31
-54 -32 -54 -2 0 49 36 68 120 64 l65 -2 0 -52z m305 35 c0 -13 -14 -116 -32
-230 l-32 -208 -98 0 -98 0 0 230 0 230 130 0 c128 0 130 0 130 -22z m512 17
c9 -10 -53 -350 -70 -379 -9 -16 -30 -38 -45 -50 -26 -19 -44 -21 -203 -24
l-175 -3 6 23 c6 28 65 413 65 428 0 10 411 15 422 5z m1902 -340 c47 -190 86
-349 86 -355 0 -12 -720 -14 -720 -2 0 4 38 163 86 355 l86 347 188 0 188 0
86 -345z m786 -10 l0 -355 -304 0 -304 0 -86 348 c-47 191 -86 351 -86 355 0
4 176 7 390 7 l390 0 0 -355z m-3770 336 c0 -10 -62 -61 -73 -61 -4 0 -7 16
-7 35 0 34 1 35 40 35 22 0 40 -4 40 -9z m-9 -144 c-5 -7 -23 -20 -40 -30
l-31 -18 0 35 c0 30 6 39 38 61 l37 25 3 -30 c2 -17 -1 -37 -7 -43z m-617 -87
c61 -88 99 -153 103 -175 l6 -35 -177 0 -176 0 0 175 0 175 73 0 73 0 98 -140z
m50 113 c16 -33 33 -143 19 -128 -17 17 -103 142 -103 149 0 3 16 6 35 6 28 0
37 -5 49 -27z m276 -148 c0 -96 -2 -175 -4 -175 -2 0 -39 55 -84 123 -66 100
-82 132 -87 175 l-7 52 91 0 91 0 0 -175z m90 -2 c0 -122 -2 -133 -20 -143
-20 -10 -20 -8 -20 145 0 153 0 155 20 143 18 -12 20 -24 20 -145z m-713 -60
c-2 -37 -3 -9 -3 62 0 72 1 102 3 68 2 -34 2 -93 0 -130z m923 27 l0 -100 -40
0 -40 0 0 75 0 74 37 26 c21 14 39 25 40 25 2 0 3 -45 3 -100z m-408 -60 c6 0
38 -64 38 -76 0 -2 -13 -4 -29 -4 -33 0 -36 6 -45 85 l-7 50 18 -27 c10 -16
21 -28 25 -28z m-51 -305 c90 -47 90 -193 0 -240 -91 -47 -201 17 -201 118 0
104 108 170 201 122z m1140 0 c90 -47 90 -193 0 -240 -91 -47 -201 17 -201
118 0 104 108 170 201 122z m6018 -152 l33 -43 -77 0 -76 0 22 33 c36 51 52
68 59 60 4 -5 21 -27 39 -50z m-2939 -23 l0 -60 -1154 0 c-1036 0 -1156 2
-1170 16 -18 18 -21 56 -6 85 10 19 34 19 1170 19 l1160 0 0 -60z"/>
<path d="M7524 4949 c-10 -17 13 -36 27 -22 12 12 4 33 -11 33 -5 0 -12 -5
-16 -11z"/>
<path d="M7346 4913 c-12 -12 -6 -33 9 -33 8 0 15 6 15 14 0 17 -14 28 -24 19z"/>
<path d="M7720 4890 c0 -11 7 -20 15 -20 8 0 15 9 15 20 0 11 -7 20 -15 20 -8
0 -15 -9 -15 -20z"/>
<path d="M7520 4816 c0 -8 4 -17 8 -20 13 -8 35 11 28 23 -10 16 -36 14 -36
-3z"/>
<path d="M7857 4783 c-4 -3 -7 -12 -7 -20 0 -15 26 -18 34 -4 7 11 -18 33 -27
24z"/>
<path d="M7330 4735 c0 -10 7 -15 18 -13 21 4 19 22 -2 26 -10 2 -16 -3 -16
-13z"/>
<path d="M7660 4735 c0 -10 7 -15 18 -13 21 4 19 22 -2 26 -10 2 -16 -3 -16
-13z"/>
<path d="M6416 4941 c-7 -11 18 -33 27 -24 4 3 7 12 7 20 0 15 -26 18 -34 4z"/>
<path d="M6230 4896 c0 -21 21 -31 30 -15 5 7 6 17 4 21 -9 14 -34 9 -34 -6z"/>
<path d="M6606 4891 c-7 -11 18 -33 27 -24 4 3 7 12 7 20 0 15 -26 18 -34 4z"/>
<path d="M6414 4819 c-8 -14 11 -33 25 -25 6 4 11 11 11 16 0 13 -29 20 -36 9z"/>
<path d="M6736 4772 c-8 -13 11 -35 23 -28 16 10 14 36 -3 36 -8 0 -17 -4 -20
-8z"/>
<path d="M6224 4739 c-10 -17 13 -36 27 -22 12 12 4 33 -11 33 -5 0 -12 -5
-16 -11z"/>
<path d="M6550 4736 c0 -21 21 -31 30 -15 5 7 6 17 4 21 -9 14 -34 9 -34 -6z"/>
<path d="M5114 2986 c-3 -8 -4 -23 -2 -33 3 -17 31 -18 572 -18 520 0 570 1
579 17 8 12 7 21 -2 32 -12 14 -75 16 -578 16 -482 0 -564 -2 -569 -14z"/>
<path d="M1369 6596 c-163 -111 -417 -713 -361 -856 15 -38 196 -116 234 -101
109 41 314 406 378 674 23 94 26 186 8 209 -16 20 -179 98 -205 98 -10 0 -34
-11 -54 -24z m59 -103 c-10 -153 -143 -476 -261 -632 -112 -149 -137 -130 -91
70 10 43 20 66 30 66 8 0 14 -10 14 -23 0 -15 5 -22 13 -19 25 10 60 76 98
187 42 118 62 158 80 158 14 0 3 -63 -17 -102 -8 -15 -14 -35 -14 -45 1 -17 2
-17 15 1 8 10 24 47 35 82 12 34 28 68 36 74 8 7 14 21 14 32 0 16 -3 18 -14
9 -11 -9 -15 -9 -18 0 -15 44 -85 -55 -124 -175 -30 -91 -58 -151 -75 -162
-16 -10 -3 58 22 115 11 24 17 46 14 49 -3 3 -14 -17 -25 -44 -32 -75 -61
-132 -54 -104 13 49 103 250 145 322 69 119 149 218 177 218 2 0 2 -35 0 -77z
m125 15 c15 -5 27 -14 27 -19 0 -5 -13 -3 -30 6 -16 8 -36 15 -45 15 -8 0 -15
5 -15 11 0 7 7 8 18 4 9 -4 29 -12 45 -17z m20 -69 c9 7 11 -2 8 -36 -3 -42
-4 -43 -15 -21 -7 14 -26 26 -49 32 -34 9 -46 24 -31 38 3 4 21 0 41 -8 23
-10 39 -12 46 -5z m-16 -92 c13 5 15 2 10 -18 -4 -13 -7 -29 -7 -36 0 -8 -12
-5 -35 8 -20 12 -44 19 -55 16 -11 -3 -20 -4 -20 -3 0 2 5 17 11 33 l10 30 35
-18 c20 -10 43 -15 51 -12z m-65 -91 c19 -8 38 -12 42 -9 9 9 7 -12 -4 -41
l-9 -26 -37 22 c-29 17 -40 19 -55 10 -17 -11 -17 -10 -1 33 9 24 19 40 22 35
3 -5 22 -16 42 -24z m-47 -97 c19 -12 42 -19 49 -16 12 5 13 0 4 -24 -10 -28
-28 -49 -28 -31 0 12 -69 44 -81 37 -5 -4 -9 -4 -9 -1 0 7 23 56 26 56 2 0 19
-9 39 -21z m-2 -109 c20 0 21 -10 6 -43 l-11 -25 -36 25 c-20 13 -44 22 -54
20 -15 -4 -15 -2 -1 28 l16 33 31 -19 c17 -10 39 -19 49 -19z m-88 -81 c19
-12 42 -18 51 -15 9 3 14 3 12 -1 -2 -5 -10 -20 -17 -35 l-14 -27 -27 21 c-15
11 -39 21 -52 21 -23 2 -24 3 -9 29 9 16 17 28 18 28 1 0 18 -9 38 -21z m-31
-100 c42 -15 42 -16 16 -49 -14 -18 -20 -20 -20 -9 0 17 -66 53 -81 43 -6 -3
0 10 13 29 20 31 24 33 30 17 4 -10 23 -24 42 -31z m-44 -85 l29 -6 -22 -30
c-20 -27 -22 -27 -28 -9 -4 10 -23 25 -43 32 -33 12 -34 13 -18 34 15 21 16
21 34 3 10 -10 32 -21 48 -24z m-82 -68 c48 -25 31 -33 -20 -11 -55 24 -55 24
-38 35 8 5 17 5 20 1 3 -5 20 -16 38 -25z"/>
<path d="M9888 6275 c-10 -23 -8 -29 25 -63 l37 -38 -30 -29 c-36 -34 -46 -61
-30 -80 20 -24 52 -17 87 17 l33 32 33 -32 c36 -35 71 -41 85 -14 12 22 1 51
-32 81 l-26 24 34 38 c39 43 39 75 -1 85 -19 5 -32 -1 -58 -26 l-34 -33 -36
32 c-43 38 -71 40 -87 6z"/>
<path d="M9802 5768 c-16 -16 -15 -43 2 -57 9 -8 222 -10 781 -9 719 3 769 4
779 21 8 12 8 22 0 35 -10 16 -60 17 -781 20 -590 2 -772 -1 -781 -10z"/>
<path d="M9786 5424 c-23 -23 -20 -53 8 -66 30 -13 51 -6 66 21 8 17 7 24 -10
41 -24 24 -43 25 -64 4z"/>
<path d="M9966 5424 c-33 -32 -13 -74 35 -74 29 0 59 23 59 45 0 17 -38 45
-62 45 -9 0 -24 -7 -32 -16z"/>
<path d="M10160 5422 c-27 -22 -21 -57 11 -67 57 -18 102 33 59 67 -12 10 -28
18 -35 18 -7 0 -23 -8 -35 -18z"/>
<path d="M10350 5422 c-46 -37 9 -90 66 -63 28 12 31 42 8 65 -20 21 -47 20
-74 -2z"/>
<path d="M10552 5433 c-7 -2 -17 -14 -23 -25 -22 -40 55 -80 89 -46 38 38 -12
93 -66 71z"/>
<path d="M10738 5429 c-21 -12 -24 -49 -6 -67 7 -7 24 -12 38 -12 32 0 50 17
50 47 0 35 -46 54 -82 32z"/>
<path d="M10928 5429 c-36 -21 -16 -79 27 -79 44 0 63 60 26 80 -24 12 -31 12
-53 -1z"/>
<path d="M511 4956 c-28 -34 6 -74 53 -62 24 6 27 11 24 39 -3 28 -7 32 -34
35 -18 2 -36 -3 -43 -12z"/>
<path d="M670 4951 c-18 -35 4 -63 47 -59 43 4 64 29 47 56 -6 10 -26 18 -47
20 -28 2 -38 -1 -47 -17z"/>
<path d="M852 4958 c-28 -28 -6 -68 39 -68 32 0 52 21 47 52 -2 18 -10 24 -38
26 -19 2 -41 -3 -48 -10z"/>
<path d="M1020 4955 c-10 -12 -10 -21 -2 -40 9 -20 19 -25 46 -25 42 0 63 28
46 60 -13 24 -71 28 -90 5z"/>
<path d="M1197 4964 c-12 -12 -8 -51 7 -63 37 -31 103 9 80 47 -11 17 -74 29
-87 16z"/>
<path d="M1372 4958 c-30 -30 -5 -68 45 -68 39 0 60 28 43 60 -12 23 -68 28
-88 8z"/>
<path d="M1542 4953 c-6 -11 -6 -27 -1 -41 7 -19 15 -23 45 -20 71 6 72 70 1
76 -26 2 -38 -2 -45 -15z"/>
<path d="M1722 4958 c-28 -28 -6 -68 38 -68 38 0 52 14 48 46 -3 25 -8 29 -38
32 -19 2 -41 -3 -48 -10z"/>
<path d="M1890 4950 c-17 -32 4 -60 46 -60 27 0 37 5 46 25 15 33 -4 55 -48
55 -23 0 -37 -6 -44 -20z"/>
<path d="M2067 4963 c-11 -11 -8 -48 5 -61 17 -17 53 -15 68 3 7 8 10 25 6 40
-5 20 -12 25 -40 25 -18 0 -36 -3 -39 -7z"/>
<path d="M10540 4864 c-79 -21 -153 -69 -225 -146 -242 -261 -234 -738 16
-989 71 -71 162 -123 238 -135 l44 -7 -6 -116 c-7 -147 -28 -220 -113 -388
-61 -120 -67 -136 -67 -195 -1 -103 58 -187 171 -243 76 -38 117 -43 131 -16
18 32 -2 57 -57 76 -55 18 -125 73 -147 116 -28 54 -19 99 44 221 89 171 131
327 131 488 l0 58 48 12 c250 63 430 360 409 679 -25 393 -313 666 -617 585z
m265 -112 c72 -36 157 -128 199 -214 35 -74 66 -179 66 -230 l0 -28 -190 0
-190 0 0 256 0 256 33 -7 c17 -4 54 -19 82 -33z m265 -590 c0 -49 -37 -177
-70 -243 -66 -129 -195 -229 -316 -245 -155 -19 -318 90 -399 267 -24 54 -49
142 -58 212 l-6 37 425 0 424 0 0 -28z"/>
<path d="M1893 4671 c-40 -25 -53 -49 -53 -101 0 -57 50 -110 104 -110 79 0
135 63 122 135 -14 74 -109 116 -173 76z m85 -97 c4 -27 -26 -40 -46 -20 -21
20 -8 48 20 44 14 -2 24 -11 26 -24z"/>
<path d="M680 3540 c-27 -27 -26 -34 15 -78 l35 -39 -26 -24 c-41 -39 -48 -58
-28 -80 24 -26 38 -24 79 12 l35 31 35 -31 c40 -35 57 -38 79 -15 23 23 20 36
-19 74 l-34 33 35 39 c39 43 40 63 7 85 -20 13 -24 12 -62 -22 l-41 -37 -40
36 c-22 20 -42 36 -45 36 -3 0 -14 -9 -25 -20z"/>
</g>
</svg>
